<svg height='300px' width='300px'  fill="#000000" xmlns="http://www.w3.org/2000/svg" xmlns:xlink="http://www.w3.org/1999/xlink" version="1.1" x="0px" y="0px" viewBox="0 0 100 100" enable-background="new 0 0 100 100" xml:space="preserve"><g><path d="M49.5,81.1l-1.4-1.7c-1-1.2-24.7-30.7-24.7-44.6c0-14.4,11.7-26.1,26.1-26.1s26.1,11.7,26.1,26.1   c0,13.9-23.7,43.3-24.7,44.6L49.5,81.1z M49.5,13.2C37.1,13.2,27,23,27,34.9c0,10.5,17.4,32.8,22.5,39c5-6.2,22.5-28.5,22.5-39   C72,23,61.9,13.2,49.5,13.2z"></path><path d="M49.5,47.9c-7.2,0-13-5.8-13-13c0-7.2,5.9-13,13-13s13,5.8,13,13C62.5,42,56.7,47.9,49.5,47.9z M49.5,26.7c-5,0-9,4-9,9   c0,5,4,9,9,9c5,0,9-4,9-9C58.5,30.7,54.5,26.7,49.5,26.7z"></path><path d="M62.2,71.6l-1.4,1.8c6.9,1.4,11.1,4,11.1,6.5c0,3.6-9.2,7.6-22.5,7.6c-13.3,0-22.5-4-22.5-7.6c0-2.4,4.3-5,11.1-6.5   l-1.4-1.8c-8,1.4-14.2,4.3-14.2,8.5c0,6.2,13.9,9.6,27,9.6c13.1,0,27-3.4,27-9.6C76.5,75.9,70.3,73,62.2,71.6z"></path></g></svg>
