<svg xmlns="http://www.w3.org/2000/svg" xmlns:xlink="http://www.w3.org/1999/xlink" version="1.1" x="0px" y="0px" viewBox="0 0 100 125" enable-background="new 0 0 100 100" xml:space="preserve"><path d="M95,62.713c0,1.627-0.35,4.573-0.389,5.426c-0.038,0.851-0.154,5.386-0.271,6.084s-0.775,3.507-2.345,4.089  s-10.831,1.956-16.257,2.343c-5.152,0.368-19.658,0.807-25.293,0.85c-0.019,0-0.043,0.004-0.063,0.004  c-0.12,0-0.25-0.001-0.383-0.001s-0.264,0.001-0.383,0.001c-0.02,0-0.043-0.004-0.063-0.004c-5.634-0.044-20.14-0.481-25.292-0.85  c-5.426-0.388-14.688-1.763-16.258-2.343c-1.569-0.582-2.229-3.391-2.344-4.089c-0.116-0.698-0.232-5.231-0.271-6.084  C5.35,67.286,5,64.34,5,62.713c0-1.628,0.078-4.612,0.272-6.667c0.193-2.054,0.697-4.068,0.958-5.348  c0.262-1.279,0.494-1.744,0.843-2.85c0.349-1.104,1.046-1.976,1.453-2.47c0.407-0.495,0.843-0.96,1.802-1.861  c0.959-0.901,1.396-1.686,2.035-2.063c0.639-0.378,0.552-0.349,2.064-1.047c1.511-0.698,2.121-2.413,2.121-2.413l-1.075-0.087  l0.058,0.988h-1.482c0,0-0.029-0.61,0-1.047c0.028-0.437,0.232-0.6,0.232-0.6h2.383c0,0,1.239-2.869,1.86-4.341  c0.62-1.473,5.658-8.836,6.821-10.464c1.163-1.628,1.628-2.249,3.488-2.558c1.312-0.219,8.48-0.823,14.714-1.16  c0.665-0.208,1.666-0.235,6.068-0.235c0.124,0,0.254,0.001,0.383,0.002c0.13-0.001,0.26-0.002,0.383-0.002  c4.404,0,5.404,0.027,6.068,0.235c6.234,0.338,13.403,0.94,14.715,1.16c1.859,0.31,2.325,0.931,3.487,2.558  c1.164,1.627,6.202,8.991,6.822,10.464c0.619,1.473,1.858,4.341,1.858,4.341h2.383c0,0,0.204,0.165,0.234,0.6  c0.028,0.436,0,1.047,0,1.047h-1.482l0.057-0.988l-1.075,0.087c0,0,0.611,1.714,2.123,2.413c1.511,0.698,1.424,0.669,2.063,1.047  c0.638,0.378,1.074,1.163,2.035,2.063c0.958,0.901,1.395,1.366,1.801,1.861c0.407,0.494,1.105,1.366,1.453,2.47  c0.35,1.105,0.582,1.571,0.844,2.85c0.262,1.279,0.767,3.294,0.958,5.348C94.919,58.101,95,61.085,95,62.713z M79.614,31.746  c-1.551-2.712-4.074-7.073-5.059-8.352c-1.339-1.741-1.608-2.732-4.631-3.198c-2.757-0.424-10.024-1.248-17.981-1.391  c-0.047-0.001-0.094-0.001-0.138-0.002c-0.303-0.004-0.605-0.009-0.908-0.012c-0.203-0.002-0.398-0.008-0.603-0.008  c-0.113,0-0.226,0.001-0.339,0.001s-0.226-0.001-0.339-0.001c-0.205,0-0.401,0.006-0.603,0.008  c-0.303,0.003-0.605,0.008-0.907,0.012c-0.046,0.001-0.094,0.001-0.138,0.002c-7.958,0.143-15.225,0.968-17.98,1.391  c-3.023,0.465-3.293,1.457-4.631,3.198c-0.984,1.279-3.507,5.64-5.058,8.352s-1.628,3.798-0.465,5.116  c1.163,1.318,4.574,0.931,8.914,0.465s15.502-0.93,21.165-0.93c0.017,0,0.029,0,0.044,0s0.028,0,0.044,0  c5.663,0,16.825,0.465,21.165,0.93c4.34,0.465,7.751,0.853,8.914-0.465C81.24,35.544,81.164,34.458,79.614,31.746z M88.76,45.311  c-0.891,0.077-1.82,0.349-4.107,0.969c-2.287,0.619-4.729,1.472-6.2,2.249c-1.474,0.774-3.528,3.178-3.528,3.178  s1.048,0.388,1.821,0.735c0.775,0.349,1.279,0.544,2.869,0.62c1.591,0.077,2.014-0.232,5.465-0.774  c3.45-0.543,4.61-1.009,5.445-1.977c0.834-0.968,0.483-3.101,0.483-3.101l-0.969-1.667C90.039,45.543,89.652,45.233,88.76,45.311z   M10.499,45.543L9.53,47.21c0,0-0.35,2.133,0.484,3.1c0.834,0.968,1.996,1.435,5.446,1.977c3.45,0.543,3.875,0.853,5.464,0.775  c1.59-0.078,2.094-0.272,2.869-0.621c0.775-0.348,1.821-0.734,1.821-0.734s-2.054-2.404-3.527-3.179  c-1.472-0.775-3.913-1.628-6.201-2.248c-2.287-0.621-3.218-0.892-4.109-0.97C10.887,45.233,10.499,45.543,10.499,45.543z   M76.881,59.011c-0.872-1.396-4.011-4.012-4.011-4.012s-4.185,0.466-9.824,0.466c-5.641,0-10.349,0-10.349,0s-0.29,0.873-0.93,1.57  c-0.639,0.696-1.395,1.104-1.395,1.104s-0.756-0.407-1.395-1.104c-0.64-0.697-0.931-1.57-0.931-1.57s-4.708,0-10.348,0  c-5.639,0-9.825-0.466-9.825-0.466s-3.139,2.616-4.011,4.012c-0.873,1.396-1.57,2.965,0,4.361c1.57,1.395,4.65,2.79,6.395,3.021  c1.744,0.233,2.441,0.406,2.441,0.406s0.873-0.522,1.686-1.104c0.815-0.581,1.005-0.581,2.267-0.581c1.144,0,9.429,0,12.828,0  c0.325,0.001,0.631,0,0.894,0c0.262,0,0.569,0.001,0.894,0c3.397,0,11.683,0,12.828,0c1.261,0,1.45-0.001,2.265,0.581  c0.813,0.582,1.686,1.104,1.686,1.104s0.698-0.173,2.441-0.406c1.745-0.232,4.825-1.628,6.396-3.021  C78.45,61.978,77.753,60.406,76.881,59.011z M58.084,51.556c-1.883-0.146-4.393-0.237-7.711-0.237s-5.829,0.092-7.712,0.237  c-10.527,0.694-13.934,2.67-13.934,2.67s1.474,0.465,1.667,0.465s16.355,0,17.324,0c0.97,0,0.97,0.271,1.239,0.774  c0.271,0.504,1.416,1.474,1.416,1.474s1.144-0.97,1.416-1.474c0.271-0.503,0.271-0.774,1.239-0.774c0.968,0,17.13,0,17.323,0  c0.194,0,1.668-0.465,1.668-0.465S68.611,52.249,58.084,51.556z M79.149,72.788l1.725,2.326c0,0,2.751,0.115,5.601-0.582  c2.848-0.698,3.487-1.047,3.836-1.744c0.35-0.697,0.466-2.441,0.466-2.441s-3.313,0.697-6.162,1.162  C81.766,71.975,79.149,72.788,79.149,72.788z M15.154,71.509c-2.848-0.465-6.162-1.162-6.162-1.162s0.116,1.744,0.465,2.441  c0.349,0.697,0.988,1.046,3.836,1.744c2.849,0.696,5.6,0.582,5.6,0.582l1.725-2.326C20.619,72.788,18.002,71.975,15.154,71.509z   M50.373,79.184c0.326,0,0.673-0.003,1.029-0.008c0.651-0.006,1.279-0.019,1.875-0.036c8.425-0.218,21.649-1.196,21.649-1.196  l-1.744-2.822c0,0-6.435,0.652-10,0.807c-3.564,0.153-12.808,0-12.808,0s-9.244,0.154-12.81,0c-3.566-0.155-10-0.807-10-0.807  l-1.744,2.822c0,0,13.224,0.979,21.648,1.196c0.597,0.019,1.225,0.03,1.876,0.036C49.7,79.181,50.046,79.184,50.373,79.184z"/></svg>